<?xml version="1.0" encoding="utf-8"?>
<!-- Generator: Adobe Illustrator 23.0.3, SVG Export Plug-In . SVG Version: 6.00 Build 0)  -->
<svg version="1.1" id="Layer_1" xmlns="http://www.w3.org/2000/svg" xmlns:xlink="http://www.w3.org/1999/xlink" x="0px" y="0px"
	 viewBox="0 0 1240 1240" style="enable-background:new 0 0 1240 1240;" xml:space="preserve">
<style type="text/css">
	.st0{fill:#FEFEFD;}
	.st1{fill:#EDE548;}
	.st2{fill:#B8207D;}
	.st3{fill:#272526;}
	.st4{fill:#5F9ED2;}
	.st5{fill:#89888D;}
</style>
<g>
	<g>
		<path class="st0" d="M1,621C1,415.83,1.01,210.67,0.91,5.5c0-3.75,0.84-4.59,4.59-4.59c410.33,0.1,820.67,0.1,1231,0
			c3.75,0,4.59,0.84,4.59,4.59c-0.1,410.33-0.1,820.67,0,1231c0,3.75-0.84,4.59-4.59,4.59c-410.33-0.1-820.67-0.1-1231,0
			c-3.75,0-4.6-0.84-4.59-4.59C1.01,1031.33,1,826.17,1,621z M30.44,623.49c-0.55,4.7-0.83,9.4,0.16,14.08
			c0.6,19.81,2.01,39.56,4.58,59.2c9.4,71.74,30.82,139.65,65.25,203.35c52.77,97.62,127.07,174.55,222.58,230.97
			c49.26,29.1,101.84,50.12,157.36,63.82c34.79,8.58,70.12,13.81,105.87,15.83c11.57,0.65,23.21,1.87,34.84,0.65
			c6.29,0.94,12.56-0.42,18.83-0.18c14.86,0.58,29.56-1.55,44.31-2.57c6.09-0.42,12.29-1.07,18.28-2.24
			c10.21-1.99,20.54-3.13,30.75-5.17c10.48-2.09,20.91-4.47,31.32-6.81c10.99-2.47,21.76-5.99,32.52-9.41
			c12.43-3.96,24.96-7.75,37.04-12.62c16.01-6.45,31.82-13.41,47.36-21.02c27.88-13.65,54.34-29.56,79.75-47.35
			c27.38-19.18,52.78-40.66,76.44-64.25c18.42-18.37,35.7-37.71,51.55-58.37c12.01-15.65,23.32-31.77,33.7-48.53
			c13.06-21.09,24.99-42.79,35.19-65.44c6.16-13.67,11.83-27.52,17.12-41.55c4.84-12.84,9.01-25.88,13.14-38.94
			c2.47-7.82,4.78-15.73,6.38-23.76c2.11-10.64,4.91-21.11,6.73-31.83c2.04-12.05,4.04-24.1,5.64-36.22
			c1.05-7.92,1.34-15.92,2.44-23.78c2.35-16.73,1.04-33.54,1.96-50.28c0.95-5.48-0.09-10.94-0.12-16.41
			c-0.13-21.01-2.02-41.9-4.81-62.69c-4.43-33.01-11.61-65.43-21.55-97.24c-17.26-55.25-42.1-106.87-74.58-154.73
			c-37.55-55.33-83.16-103.03-136.83-142.99c-48.05-35.78-100.34-63.61-156.83-83.5c-27.62-9.72-55.85-17.23-84.65-22.71
			c-20.94-3.98-42.02-6.78-63.23-8.61c-15.93-1.38-31.91-1.93-47.9-1.3c-20.99-0.43-41.88,0.73-62.77,2.88
			c-29.32,3.01-58.24,8.23-86.7,15.71c-60.28,15.85-116.76,40.45-169.21,74.26c-45.42,29.28-86.12,64-122.12,104.33
			c-29.7,33.27-55.29,69.4-76.85,108.41c-16.94,30.65-31.02,62.59-42.13,95.79c-12.8,38.25-21.76,77.38-26.5,117.49
			c-2.79,23.66-4.41,47.35-3.85,71.18C30.74,621.79,30.59,622.64,30.44,623.49z"/>
		<path class="st1" d="M1211.53,621.06c-0.92,16.75,0.4,33.55-1.96,50.28c-1.11,7.87-1.39,15.87-2.44,23.78
			c-1.6,12.12-3.6,24.16-5.64,36.22c-1.82,10.72-4.62,21.2-6.73,31.83c-1.59,8.03-3.91,15.95-6.38,23.76
			c-4.12,13.06-8.3,26.1-13.14,38.94c-5.29,14.03-10.96,27.87-17.12,41.55c-10.2,22.65-22.13,44.35-35.19,65.44
			c-10.38,16.76-21.69,32.88-33.7,48.53c-15.84,20.65-33.12,40-51.55,58.37c-23.66,23.59-49.06,45.08-76.44,64.25
			c-25.4,17.79-51.86,33.7-79.75,47.35c-15.54,7.61-31.35,14.57-47.36,21.02c-12.08,4.87-24.61,8.66-37.04,12.62
			c-10.75,3.42-21.53,6.94-32.52,9.41c-10.41,2.34-20.84,4.72-31.32,6.81c-10.21,2.04-20.54,3.18-30.75,5.17
			c-5.99,1.17-12.19,1.82-18.28,2.24c-14.75,1.03-29.46,3.16-44.31,2.57c-6.27-0.25-12.54,1.12-18.83,0.18
			c0.01-33.57,0.02-67.13,0.03-100.7c17.41-0.91,34.82-1.53,52.2-3.27c15.53-1.55,30.93-3.87,46.16-6.89
			c14.42-2.85,28.66-6.74,42.78-11.06c16.92-5.18,33.42-11.28,49.77-18.04c32.87-13.59,63.6-30.97,92.52-51.5
			c25.29-17.95,48.61-38.27,70.05-60.76c27.4-28.74,51.15-60.18,70.86-94.64c11.49-20.1,21.53-40.87,30.12-62.43
			c5.58-14.02,10.76-28.16,14.95-42.58c4.34-14.95,7.93-30.15,10.92-45.5c3.08-15.79,5.26-31.69,7-47.61
			c1.65-15.02,1.52-30.23,2.18-45.35C1144.26,621.06,1177.89,621.06,1211.53,621.06z"/>
		<path class="st2" d="M1211.53,621.06c-33.63,0-67.26,0-100.89,0c-0.16-0.97-0.47-1.93-0.47-2.9
			c-0.02-37.08-4.45-73.61-12.95-109.71c-8.14-34.59-19.91-67.86-35.37-99.83c-26.11-53.97-60.95-101.55-104.48-142.79
			c-37.81-35.82-80.22-64.9-127.31-87.18c-26.65-12.61-54.19-22.75-82.7-30.31c-23.65-6.27-47.61-10.67-71.89-13.53
			c-18.05-2.12-36.19-2.47-54.31-3.14c-0.04-33.6-0.09-67.2-0.13-100.81c16-0.62,31.98-0.07,47.9,1.31
			c21.21,1.83,42.29,4.63,63.23,8.61c28.79,5.47,57.02,12.99,84.65,22.71c56.49,19.89,108.78,47.71,156.83,83.5
			c53.67,39.97,99.28,87.67,136.83,142.99c32.49,47.86,57.32,99.48,74.58,154.73c9.94,31.81,17.12,64.23,21.55,97.24
			c2.79,20.79,4.68,41.68,4.81,62.69C1211.44,610.13,1212.48,615.59,1211.53,621.06z"/>
		<path class="st3" d="M621.12,1110.69c-0.01,33.57-0.02,67.13-0.03,100.7c-11.64,1.22-23.27,0-34.84-0.66
			c-35.75-2.02-71.08-7.25-105.87-15.83c-55.52-13.7-108.09-34.72-157.36-63.82c-95.52-56.42-169.81-133.35-222.58-230.97
			C66,836.42,44.58,768.51,35.18,696.77c-2.57-19.64-3.98-39.4-4.58-59.19c0.27-4.69,0.52-9.4-0.16-14.09
			c0.15-0.85,0.3-1.7,0.45-2.55c33.59,0.01,67.18,0.02,100.76,0.03c0.23,29.16,2.57,58.15,7.77,86.86
			c9.22,50.94,25.82,99.35,50.62,144.83c51.09,93.68,124.68,163.88,220.78,210.25c55.9,26.98,115.01,42.16,176.94,46.26
			C598.86,1109.9,610,1110.2,621.12,1110.69z"/>
		<path class="st4" d="M131.65,620.97c-33.59-0.01-67.18-0.02-100.76-0.03c-0.56-23.83,1.05-47.52,3.85-71.18
			c4.73-40.11,13.69-79.24,26.5-117.49c11.11-33.2,25.19-65.14,42.13-95.79c21.56-39.01,47.15-75.14,76.85-108.41
			c36-40.33,76.7-75.04,122.12-104.33c52.45-33.81,108.94-58.41,169.21-74.26c28.46-7.49,57.38-12.7,86.7-15.71
			c20.89-2.15,41.78-3.31,62.77-2.88c0.04,33.6,0.09,67.2,0.13,100.81c-10.8,0.65-21.62,0.42-32.43,1.12
			c-19.61,1.26-39.02,3.83-58.32,7.36c-42.79,7.83-83.75,21.4-122.83,40.4c-37.72,18.33-72.52,41.23-104.39,68.57
			C256.71,289,218.86,335.81,189.79,389.7c-17.99,33.37-31.92,68.37-41.57,105.04c-8.19,31.11-13.47,62.66-15.42,94.81
			C132.16,600.03,132.48,610.52,131.65,620.97z"/>
		<path class="st4" d="M30.44,623.49c0.67,4.69,0.42,9.39,0.16,14.09C29.61,632.89,29.89,628.19,30.44,623.49z"/>
		<path class="st0" d="M131.65,620.97c0.82-10.45,0.5-20.94,1.14-31.41c1.96-32.15,7.24-63.71,15.42-94.81
			c9.65-36.68,23.58-71.68,41.57-105.04c29.06-53.89,66.91-100.7,113.39-140.57c31.87-27.34,66.67-50.24,104.39-68.57
			c39.08-18.99,80.04-32.57,122.83-40.4c19.29-3.53,38.71-6.1,58.32-7.36c10.82-0.69,21.63-0.47,32.43-1.12
			c18.12,0.67,36.26,1.02,54.31,3.14c24.29,2.85,48.25,7.25,71.89,13.53c28.51,7.57,56.05,17.71,82.7,30.31
			c47.08,22.27,89.5,51.36,127.31,87.18c43.53,41.24,78.37,88.82,104.48,142.79c15.46,31.97,27.23,65.24,35.37,99.83
			c8.49,36.1,12.93,72.63,12.95,109.71c0,0.97,0.31,1.93,0.47,2.9c-0.66,15.13-0.53,30.34-2.18,45.35
			c-1.75,15.92-3.93,31.82-7,47.61c-2.99,15.35-6.58,30.54-10.92,45.5c-4.19,14.42-9.37,28.56-14.95,42.58
			c-8.58,21.56-18.63,42.33-30.12,62.43c-19.7,34.46-43.46,65.9-70.86,94.64c-21.44,22.49-44.76,42.81-70.05,60.76
			c-28.92,20.53-59.65,37.91-92.52,51.5c-16.34,6.76-32.84,12.86-49.77,18.04c-14.12,4.32-28.37,8.21-42.78,11.06
			c-15.23,3.01-30.63,5.33-46.16,6.89c-17.39,1.74-34.79,2.36-52.2,3.27c-11.12-0.5-22.26-0.79-33.36-1.52
			c-61.93-4.1-121.03-19.29-176.94-46.26c-96.1-46.37-169.69-116.57-220.78-210.25c-24.8-45.48-41.41-93.89-50.62-144.83
			C134.22,679.12,131.89,650.13,131.65,620.97z M621.02,149.06c-26.71-0.69-53.2,1.8-79.46,6.35
			c-36.33,6.29-71.54,16.44-105.49,31.08c-28.68,12.36-55.99,27.08-81.71,44.72c-39.25,26.92-73.65,59.07-103.31,96.32
			c-31.78,39.91-56.3,83.91-73.87,131.74c-12.02,32.72-20.18,66.44-24.46,101.09c-2.49,20.18-4.27,40.36-3.68,60.71
			c-0.68,32.93,3.02,65.42,9.87,97.58c20.66,96.91,67.34,179.28,139.33,247.17c50.72,47.83,109.46,82.45,175.73,104.25
			c34.89,11.48,70.66,18.6,107.21,21.75c13.24,1.14,26.54,1.93,39.86,1.26c1,0.04,1.99,0.11,2.99,0.12
			c19.64,0.1,39.14-1.24,58.65-3.76c10.49-1.36,20.96-2.95,31.26-4.99c12.48-2.46,24.87-5.62,37.16-9.14
			c13.22-3.78,26.31-7.92,39.08-12.89c17.29-6.72,34.1-14.59,50.63-23.13c32.49-16.77,62.29-37.44,89.86-61.26
			c22.64-19.55,43.12-41.28,61.67-64.83c15.07-19.14,28.6-39.27,40.55-60.45c8.95-15.87,17.04-32.2,24-49.06
			c3.48-8.43,7.02-16.86,9.91-25.5c4-11.95,7.81-23.95,10.91-36.21c2.45-9.67,5.15-19.32,6.9-29.09
			c1.82-10.18,3.45-20.44,4.84-30.73c2.75-20.33,4.01-40.67,3.63-61.15c0.58-21.18-1.13-42.2-3.89-63.2
			c-4.9-37.27-14.3-73.31-27.89-108.33c-23.35-60.16-57.84-113.15-102.9-159.2c-40.25-41.13-86.56-73.84-138.83-98.04
			c-26.91-12.46-54.71-22.31-83.51-29.44c-17.93-4.44-36.01-7.88-54.34-10.22C661.58,150.01,641.37,148.38,621.02,149.06z"/>
		<path class="st1" d="M1093.1,621.02c0.38,20.48-0.88,40.81-3.63,61.15c-1.39,10.29-3.02,20.55-4.84,30.73
			c-1.75,9.77-4.45,19.43-6.9,29.09c-3.1,12.25-6.91,24.26-10.91,36.21c-2.89,8.64-6.44,17.07-9.91,25.5
			c-6.96,16.86-15.05,33.19-24,49.06c-11.95,21.18-25.48,41.31-40.55,60.45c-18.55,23.56-39.04,45.28-61.67,64.83
			c-27.57,23.82-57.38,44.49-89.86,61.26c-16.53,8.53-33.34,16.4-50.63,23.13c-12.76,4.96-25.86,9.1-39.08,12.89
			c-12.29,3.52-24.69,6.68-37.16,9.14c-10.3,2.03-20.78,3.63-31.26,4.99c-19.51,2.52-39.01,3.86-58.65,3.76
			c-1-0.01-1.99-0.08-2.99-0.12c-0.01-16.35-0.01-32.71-0.02-49.06c0.77-0.24,1.54-0.7,2.3-0.69c31,0.55,61.49-3.2,91.72-10.04
			c13.42-3.04,26.7-6.54,39.67-10.89c17.58-5.9,34.73-13,51.47-21.13c33.66-16.36,64.62-36.78,92.66-61.45
			c25.3-22.25,48.09-46.9,67.45-74.61c11.41-16.34,21.81-33.25,30.93-50.97c8.67-16.84,15.96-34.23,22.38-52.07
			c4.16-11.56,7.91-23.25,10.94-35.07c2.81-10.96,5.19-22.1,6.93-33.37c2.67-17.23,5.24-34.41,5.69-51.88
			c0.18-6.95-0.64-13.95,0.79-20.85C1060.34,621.01,1076.72,621.02,1093.1,621.02z"/>
		<path class="st3" d="M621.03,1044.02c0.01,16.35,0.01,32.7,0.02,49.06c-13.32,0.67-26.62-0.12-39.86-1.26
			c-36.55-3.15-72.32-10.27-107.21-21.75c-66.27-21.8-125.01-56.42-175.73-104.25c-71.99-67.89-118.67-150.26-139.33-247.17
			c-6.86-32.16-10.56-64.65-9.87-97.58c16.31-0.02,32.62-0.03,48.93-0.05c0.79,19.29,1.48,38.59,4.16,57.73
			c6.64,47.48,20.45,92.78,42.68,135.27c46.81,89.48,116.43,154.78,208.99,195.37c38.61,16.93,78.99,27.34,120.92,31.86
			C590.13,1042.92,605.58,1043.42,621.03,1044.02z"/>
		<path class="st2" d="M1093.1,621.02c-16.38-0.01-32.75-0.02-49.13-0.03c-0.48-13.46-0.67-26.93-1.96-40.37
			c-2.17-22.57-6.01-44.82-11.75-66.72c-13.93-53.15-37.35-101.78-70.27-145.79c-29.84-39.88-65.58-73.55-107.22-100.88
			c-38.93-25.56-80.99-44.17-126.1-55.76c-19.17-4.93-38.62-8.33-58.3-10.64c-15.74-1.85-31.55-1.97-47.32-2.82
			c-0.01-16.32-0.02-32.63-0.03-48.95c20.35-0.67,40.56,0.95,60.74,3.53c18.32,2.35,36.4,5.78,54.34,10.22
			c28.8,7.13,56.6,16.98,83.51,29.44c52.27,24.2,98.58,56.91,138.83,98.04c45.06,46.05,79.55,99.04,102.9,159.2
			c13.59,35.02,22.99,71.07,27.89,108.33C1091.97,578.82,1093.68,599.84,1093.1,621.02z"/>
		<path class="st4" d="M621.02,149.06c0.01,16.32,0.02,32.63,0.03,48.95c-23.63,0.41-47.16,2.09-70.49,6.02
			c-42.79,7.2-83.59,20.56-122.14,40.43c-55.66,28.69-102.91,67.7-141.36,117.17c-35.67,45.9-60.83,97.04-75.47,153.33
			c-9.04,34.78-13.03,70.2-13.61,106.06c-16.31,0.02-32.62,0.03-48.93,0.05c-0.59-20.35,1.19-40.53,3.68-60.71
			c4.28-34.66,12.44-68.37,24.46-101.09c17.57-47.83,42.08-91.82,73.87-131.74c29.66-37.25,64.06-69.39,103.31-96.32
			c25.72-17.65,53.03-32.36,81.71-44.72c33.95-14.64,69.16-24.79,105.49-31.08C567.82,150.86,594.31,148.36,621.02,149.06z"/>
		<path class="st0" d="M197.97,621.01c0.58-35.86,4.56-71.29,13.61-106.06c14.64-56.29,39.8-107.43,75.47-153.33
			c38.44-49.47,85.7-88.48,141.36-117.17c38.55-19.87,79.35-33.23,122.14-40.43c23.33-3.93,46.86-5.61,70.49-6.02
			c15.78,0.85,31.58,0.97,47.32,2.82c19.68,2.31,39.13,5.71,58.3,10.64c45.11,11.6,87.17,30.21,126.1,55.76
			c41.64,27.33,77.38,61,107.22,100.88c32.92,44.01,56.34,92.63,70.27,145.79c5.74,21.9,9.58,44.16,11.75,66.72
			c1.29,13.44,1.48,26.91,1.96,40.37c-1.43,6.9-0.61,13.9-0.79,20.85c-0.45,17.47-3.02,34.65-5.69,51.88
			c-1.75,11.27-4.12,22.41-6.93,33.37c-3.03,11.82-6.78,23.51-10.94,35.07c-6.42,17.84-13.71,35.23-22.38,52.07
			c-9.12,17.71-19.52,34.63-30.93,50.97c-19.36,27.71-42.15,52.36-67.45,74.61c-28.04,24.67-59,45.09-92.66,61.45
			c-16.74,8.13-33.89,15.23-51.47,21.13c-12.97,4.36-26.25,7.86-39.67,10.89c-30.23,6.84-60.72,10.59-91.72,10.04
			c-0.76-0.01-1.54,0.45-2.3,0.69c-15.45-0.59-30.9-1.1-46.31-2.76c-41.94-4.53-82.31-14.93-120.92-31.86
			C361.25,968.8,291.62,903.5,244.81,814.02c-22.23-42.5-36.03-87.8-42.68-135.27C199.46,659.6,198.77,640.3,197.97,621.01z
			 M611,535.74c0-21.32,0.18-42.65-0.06-63.97c-0.19-16.8-7.33-30.54-20.4-40.88c-17.17-13.58-37.01-16.25-58.05-12.86
			c-29.24,4.71-49.25,27.61-49.36,56.91c-0.15,40.98-0.23,81.96,0.05,122.94c0.13,19.45,8.47,35.12,24.8,45.87
			c19.49,12.83,40.74,14.48,62.68,7.82c24.59-7.47,41.47-29.64,40.49-56.36C610.41,575.41,611,555.57,611,535.74z M635.01,535.99
			c0,36,0,71.99,0,107.99c0,6.18,1.31,7.55,7.55,7.59c10,0.06,20,0.05,30-0.02c7.27-0.05,8.42-1.22,8.43-8.44
			c0.03-14.83,0.11-29.67-0.06-44.5c-0.04-3.35,0.62-4.72,4.3-4.5c5.48,0.33,10.99,0.11,16.49,0.08
			c34.92-0.22,61.19-26.59,61.2-61.44c0-17.5,0.07-35-0.04-52.5c-0.2-33.73-26.65-60.08-60.35-60.16c-19.5-0.05-39-0.02-58.49-0.01
			c-7.86,0-9.03,1.16-9.03,8.91C635,464.67,635,500.33,635.01,535.99z M339.78,536.2c0,20.5-0.08,41,0.02,61.49
			c0.11,22.79,10.58,39.53,30.63,49.9c16.47,8.51,34.1,9.8,51.95,5.24c21.47-5.48,35.49-19.09,41.12-40.57
			c3.25-12.38,1.26-25.2,1.71-37.83c0.17-4.72-2.04-6.54-6.64-6.48c-10,0.14-20,0.16-30-0.01c-4.69-0.08-6.68,1.86-6.6,6.51
			c0.13,7,0.18,14,0,21c-0.29,11.36-7.86,19.3-18.05,19.22c-10.62-0.08-17.98-8.03-18-19.68c-0.04-39.5-0.04-78.99,0-118.49
			c0.01-11.07,7.82-19.48,17.87-19.51c9.63-0.03,17.06,8.28,17.26,19.42c0.1,5.66,0.09,11.33,0.05,17c-0.02,3.9,1.75,5.82,5.73,5.8
			c10.5-0.05,21-0.05,31.5,0.01c3.95,0.02,5.79-1.78,5.74-5.74c-0.1-8.33,0.54-16.72-0.31-24.97c-1.81-17.51-9.29-32.05-24.42-42.03
			c-15.4-10.17-32.35-11.37-49.87-8.49c-29.28,4.82-50.54,28.61-49.79,58.2C340.19,496.2,339.78,516.2,339.78,536.2z M839.89,508.13
			c-7.76-27.85-15.34-55.04-22.91-82.23c-1.15-4.14-3.96-5.82-8.17-5.8c-9.83,0.07-19.66-0.02-29.49,0
			c-7.52,0.02-8.9,2.02-6.44,9.09c14.08,40.49,28.12,80.99,42.24,121.46c1.17,3.35,1.74,6.69,1.73,10.24
			c-0.07,26.99-0.06,53.99-0.03,80.98c0.01,9.17,0.58,9.7,9.51,9.71c9.33,0.01,18.66,0,27.99,0c7.83,0,8.68-0.79,8.68-8.43
			c0.01-27.83,0.01-55.65-0.01-83.48c0-2.18,0.13-4.28,0.86-6.38c8.29-23.84,16.55-47.7,24.78-71.56
			c6.17-17.9,12.33-35.8,18.42-53.73c2.05-6.05,0.63-7.9-5.79-7.91c-10.16-0.02-20.33,0.06-30.49-0.01
			c-4.43-0.03-7.11,1.75-8.31,6.19c-4.74,17.46-9.64,34.88-14.47,52.32C845.31,488.28,842.67,497.98,839.89,508.13z M620.5,687.79
			c-93.67,0-187.33,0-281,0c-1,0-2,0.01-3-0.01c-0.86-0.02-2.04,0.04-2.1,0.88c-0.21,3.14-0.73,6.44,0,9.4
			c0.56,2.29,3.5,1.09,5.33,1.09c187.33,0.05,374.67,0.05,562,0.05c1.17,0,2.34,0.08,3.5-0.05c0.57-0.06,1.57-0.5,1.58-0.8
			c0.13-3.16,0.73-6.5-0.08-9.43c-0.69-2.45-3.77-1.08-5.73-1.08C807.5,687.79,714,687.79,620.5,687.79z M480.36,788.99
			c0.05,0,0.09,0,0.14,0c0,18.15,0.02,36.31-0.02,54.46c-0.01,3.59,1.15,5.52,5.22,5.49c4.09-0.03,4.57-2.28,4.56-5.48
			c-0.05-12.33-0.02-24.66-0.02-36.99c0-9.65,0-9.65,9.39-9.59c1.5,0.01,3.05,0.24,4.49-0.05c4.81-0.99,6.59,1.27,7.95,5.68
			c4.35,14.15,9.29,28.12,13.82,42.22c1.37,4.27,4.44,4.87,7.85,3.9c4.01-1.15,2.06-4.24,1.28-6.6
			c-4.78-14.54-9.59-29.07-14.52-43.55c-0.88-2.6-0.83-4.19,1.92-5.66c5.51-2.95,9.04-7.75,11.07-13.64
			c2.96-8.61,1.8-17.53,1.31-26.25c-0.64-11.59-9.66-20.85-21-22.98c-8.43-1.59-16.95-0.56-25.43-0.75c-7.45-0.17-7.99,0.47-8,7.82
			C480.35,754.33,480.36,771.66,480.36,788.99z M646.09,788.83c0-11.33,0.07-22.67-0.02-34c-0.12-15.72-11.4-26.86-27.24-27.03
			c-15.39-0.17-27.42,10.91-27.61,26.21c-0.29,23.33-0.29,46.67,0,69.99c0.18,14.96,12.43,26.58,27.05,26.47
			c16.01-0.12,27.68-11.47,27.8-27.15C646.15,811.83,646.09,800.33,646.09,788.83z M367.76,788.91c0,11.5,0,22.99,0,34.49
			c0,0.33,0,0.67,0,1c0.13,14.25,10.17,24.62,25.06,25.88c13.71,1.16,26.02-7.9,28.21-21.36c1.93-11.89,0.6-23.93,0.69-35.91
			c0.02-2.73-1.69-4.11-4.6-4.05c-4.83,0.11-9.66,0.07-14.5,0.01c-3.29-0.04-4.82,1.25-4.78,4.77c0.04,3.64,2.26,3.98,4.93,4.03
			c2.17,0.04,4.33,0.08,6.5,0c2.13-0.08,2.96,0.84,2.93,2.97c-0.12,8.33,0.22,16.68-0.33,24.98c-0.48,7.28-4.71,12.55-11.7,14.7
			c-7.06,2.17-13.49,0.56-18.56-5.23c-3.64-4.16-4.52-9.14-4.52-14.42c0-20.99-0.03-41.99,0.04-62.98c0.01-2.48,0.33-4.99,0.81-7.42
			c1.57-8.04,8.53-13.71,16.68-13.75c7.99-0.04,14.68,5.38,16.49,13.32c0.74,3.27,0.99,6.58,0.8,9.92c-0.13,2.34,0.94,3.2,3.2,3.38
			c3.83,0.31,6.71-0.12,6.01-5.11c-0.23-1.63-0.01-3.33-0.06-4.99c-0.44-14.95-11.73-25.55-27.01-25.37
			c-14.85,0.17-26.15,11.13-26.27,25.64C367.68,765.25,367.76,777.08,367.76,788.91z M819.15,788.87c0,17.66,0,35.31,0,52.97
			c0,3.62-0.26,7.16,5.16,7.08c5.18-0.08,4.72-3.4,4.69-6.85c-0.06-8.83,0.11-17.66-0.06-26.48c-0.06-3.01,0.79-4.11,3.91-4.04
			c5.32,0.11,10.66-0.03,15.97-0.4c12.99-0.93,22.14-8.97,24.29-21.75c1.97-11.72,1.65-23.67,0.44-35.36
			c-1.66-16.15-12.61-24.83-28.98-24.88c-6.16-0.02-12.33-0.02-18.49-0.01c-6.39,0.02-6.93,0.52-6.94,6.75
			C819.13,753.56,819.14,771.22,819.15,788.87z M758.26,780.35c-0.01,0-0.01,0-0.02,0c0-15.16-0.02-30.31,0.02-45.47
			c0.01-3.05-0.04-5.7-4.23-5.78c-4.25-0.07-5.38,2.06-5.35,5.92c0.11,15.15,0.04,30.31,0.04,45.47c0,14.16,0.09,28.31-0.04,42.47
			c-0.08,8.83-6.17,16.59-13.76,17.99c-8.93,1.65-16.76-2.55-20.08-10.99c-1.47-3.76-1.56-7.81-1.56-11.81
			c-0.01-27.81,0.01-55.63-0.02-83.44c0-4.72-2.15-6.43-6.41-5.44c-3.5,0.81-2.94,3.52-2.95,5.96c-0.01,29.31-0.03,58.62-0.01,87.94
			c0.01,15.57,11.63,27.14,27.09,27.08c15.8-0.06,27.22-11.32,27.26-26.93C758.29,808.99,758.26,794.67,758.26,780.35z"/>
		<path class="st3" d="M611,535.74c0,19.82-0.59,39.67,0.14,59.46c0.99,26.72-15.9,48.89-40.49,56.36
			c-21.94,6.67-43.19,5.01-62.68-7.82c-16.33-10.75-24.66-26.41-24.8-45.87c-0.28-40.98-0.2-81.96-0.05-122.94
			c0.11-29.31,20.13-52.2,49.36-56.91c21.04-3.39,40.88-0.72,58.05,12.86c13.07,10.33,20.21,24.08,20.4,40.88
			C611.19,493.1,611,514.42,611,535.74z M565,536.69c0-20.16,0.09-40.32-0.03-60.48c-0.08-13.47-11.48-22.19-23.45-18.19
			c-7.41,2.48-12.27,10.18-12.29,20.39c-0.09,38.49-0.08,76.98,0,115.46c0.01,5.57,1.23,10.94,5.11,15.28
			c4.83,5.39,12.9,7.03,20.16,4.18c6.24-2.46,10.46-9,10.48-16.66C565.04,576.68,565.01,556.68,565,536.69z"/>
		<path class="st3" d="M635,535.99c0-35.66-0.01-71.33,0-106.99c0-7.74,1.17-8.9,9.03-8.91c19.5-0.01,39-0.04,58.49,0.01
			c33.7,0.08,60.15,26.43,60.35,60.16c0.1,17.5,0.04,35,0.04,52.5c0,34.85-26.27,61.23-61.2,61.44c-5.5,0.03-11.01,0.25-16.49-0.08
			c-3.68-0.22-4.34,1.16-4.3,4.5c0.17,14.83,0.09,29.66,0.06,44.5c-0.01,7.22-1.17,8.39-8.43,8.44c-10,0.06-20,0.07-30,0.02
			c-6.23-0.04-7.55-1.41-7.55-7.59C635,607.99,635.01,571.99,635,535.99z M681,507.34c0,14.17,0.07,28.33-0.06,42.5
			c-0.02,2.84,0.39,4.28,3.73,4.04c4.31-0.31,8.67,0.06,12.99-0.09c11.02-0.39,18.88-7.65,19.04-18.38c0.28-18.66,0.3-37.34-0.03-56
			c-0.19-10.91-8.04-18.14-18.98-18.4c-4.33-0.1-8.68,0.22-12.99-0.1c-3.25-0.24-3.8,0.97-3.77,3.92
			C681.09,479.01,681,493.18,681,507.34z"/>
		<path class="st3" d="M339.78,536.2c0-20,0.41-40.01-0.1-59.99c-0.75-29.58,20.51-53.38,49.79-58.2
			c17.53-2.89,34.47-1.68,49.87,8.49c15.13,9.98,22.61,24.52,24.42,42.03c0.85,8.24,0.2,16.64,0.31,24.97
			c0.05,3.96-1.79,5.76-5.74,5.74c-10.5-0.06-21-0.06-31.5-0.01c-3.98,0.02-5.75-1.9-5.73-5.8c0.03-5.67,0.05-11.33-0.05-17
			c-0.2-11.14-7.63-19.45-17.26-19.42c-10.04,0.04-17.85,8.44-17.87,19.51c-0.05,39.5-0.04,78.99,0,118.49
			c0.01,11.64,7.38,19.6,18,19.68c10.19,0.07,17.76-7.87,18.05-19.22c0.18-6.99,0.13-14,0-21c-0.09-4.65,1.9-6.59,6.6-6.51
			c10,0.17,20,0.15,30,0.01c4.6-0.06,6.81,1.76,6.64,6.48c-0.44,12.62,1.54,25.45-1.71,37.83c-5.63,21.48-19.66,35.09-41.12,40.57
			c-17.85,4.56-35.48,3.27-51.95-5.24c-20.05-10.36-30.52-27.11-30.63-49.9C339.7,577.2,339.78,556.7,339.78,536.2z"/>
		<path class="st3" d="M839.89,508.13c2.78-10.16,5.41-19.85,8.09-29.54c4.82-17.44,9.73-34.85,14.47-52.32
			c1.2-4.44,3.89-6.22,8.31-6.19c10.16,0.07,20.33-0.01,30.49,0.01c6.42,0.01,7.84,1.86,5.79,7.91
			c-6.08,17.93-12.24,35.83-18.42,53.73c-8.23,23.86-16.49,47.72-24.78,71.56c-0.73,2.1-0.87,4.2-0.86,6.38
			c0.03,27.83,0.02,55.65,0.01,83.48c0,7.64-0.85,8.44-8.68,8.43c-9.33,0-18.66,0-27.99,0c-8.92-0.01-9.5-0.53-9.51-9.71
			c-0.03-26.99-0.04-53.99,0.03-80.98c0.01-3.55-0.56-6.89-1.73-10.24c-14.11-40.48-28.16-80.97-42.24-121.46
			c-2.46-7.07-1.08-9.08,6.44-9.09c9.83-0.02,19.66,0.07,29.49,0c4.21-0.03,7.01,1.66,8.17,5.8
			C824.56,453.09,832.13,480.28,839.89,508.13z"/>
		<path class="st3" d="M620.5,687.79c93.5,0,187-0.01,280.5,0.06c1.95,0,5.04-1.38,5.73,1.08c0.82,2.93,0.21,6.27,0.08,9.43
			c-0.01,0.3-1.01,0.74-1.58,0.8c-1.15,0.13-2.33,0.05-3.5,0.05c-187.33,0-374.67,0-562-0.05c-1.83,0-4.77,1.2-5.33-1.09
			c-0.73-2.96-0.21-6.26,0-9.4c0.06-0.84,1.25-0.9,2.1-0.88c1,0.02,2,0.01,3,0.01C433.17,687.79,526.83,687.79,620.5,687.79z"/>
		<path class="st5" d="M480.36,788.99c0-17.33-0.01-34.66,0.01-51.99c0.01-7.35,0.55-7.99,8-7.82c8.48,0.19,16.99-0.84,25.43,0.75
			c11.34,2.14,20.35,11.4,21,22.98c0.49,8.72,1.64,17.64-1.31,26.25c-2.02,5.89-5.55,10.68-11.07,13.64
			c-2.75,1.47-2.8,3.06-1.92,5.66c4.93,14.49,9.74,29.02,14.52,43.55c0.78,2.36,2.73,5.45-1.28,6.6c-3.4,0.97-6.48,0.37-7.85-3.9
			c-4.53-14.1-9.47-28.07-13.82-42.22c-1.36-4.41-3.14-6.67-7.95-5.68c-1.44,0.3-2.99,0.06-4.49,0.05
			c-9.39-0.06-9.39-0.06-9.39,9.59c0,12.33-0.03,24.66,0.02,36.99c0.01,3.2-0.47,5.45-4.56,5.48c-4.06,0.03-5.22-1.9-5.22-5.49
			c0.04-18.15,0.02-36.31,0.02-54.46C480.46,788.99,480.41,788.99,480.36,788.99z M490.25,763c0,6.98,0,13.96,0,20.94
			c0,0.17,0.02,0.33,0,0.5c-0.38,2.86,0.88,3.76,3.69,3.63c4.48-0.21,8.97-0.06,13.46-0.05c10.52,0.02,17.18-6.15,17.66-16.72
			c0.25-5.64,0.21-11.3-0.05-16.94c-0.37-8.05-5.75-14.05-13.67-15.52c-6.09-1.14-12.26-0.41-18.4-0.52
			c-2.68-0.05-2.71,1.83-2.7,3.76C490.26,749.04,490.25,756.02,490.25,763z"/>
		<path class="st5" d="M646.09,788.83c0,11.5,0.07,23-0.02,34.5c-0.11,15.68-11.79,27.03-27.8,27.15
			c-14.62,0.11-26.86-11.51-27.05-26.47c-0.29-23.33-0.29-46.67,0-69.99c0.19-15.3,12.22-26.37,27.61-26.21
			c15.84,0.17,27.12,11.31,27.24,27.03C646.15,766.16,646.09,777.5,646.09,788.83z M636.15,788.98c0-11.32,0.05-22.64-0.02-33.95
			c-0.07-10.73-6.91-18.08-16.94-18.36c-9.78-0.27-17.85,7.02-17.99,17.43c-0.32,23.46-0.32,46.94,0.01,70.4
			c0.14,10,8.25,16.99,18.04,16.75c9.9-0.25,16.85-7.54,16.88-17.8C636.18,811.95,636.16,800.47,636.15,788.98z"/>
		<path class="st5" d="M367.76,788.91c0-11.83-0.08-23.66,0.02-35.49c0.12-14.51,11.42-25.46,26.27-25.64
			c15.27-0.18,26.57,10.43,27.01,25.37c0.05,1.66-0.17,3.36,0.06,4.99c0.7,4.99-2.18,5.42-6.01,5.11c-2.27-0.18-3.34-1.04-3.2-3.38
			c0.19-3.34-0.06-6.65-0.8-9.92c-1.8-7.94-8.49-13.36-16.49-13.32c-8.14,0.04-15.11,5.71-16.68,13.75
			c-0.48,2.44-0.8,4.94-0.81,7.42c-0.06,20.99-0.03,41.99-0.04,62.98c0,5.28,0.88,10.26,4.52,14.42c5.07,5.79,11.5,7.4,18.56,5.23
			c6.99-2.15,11.22-7.42,11.7-14.7c0.55-8.3,0.2-16.65,0.33-24.98c0.03-2.13-0.8-3.05-2.93-2.97c-2.16,0.08-4.33,0.04-6.5,0
			c-2.68-0.05-4.89-0.39-4.93-4.03c-0.04-3.52,1.49-4.81,4.78-4.77c4.83,0.06,9.67,0.1,14.5-0.01c2.91-0.07,4.62,1.31,4.6,4.05
			c-0.09,11.97,1.24,24.02-0.69,35.91c-2.19,13.46-14.5,22.51-28.21,21.36c-14.88-1.26-24.92-11.62-25.06-25.88c0-0.33,0-0.67,0-1
			C367.76,811.91,367.76,800.41,367.76,788.91z"/>
		<path class="st5" d="M819.14,788.87c-0.01-17.66-0.02-35.31,0-52.97c0.01-6.23,0.55-6.73,6.94-6.75
			c6.16-0.01,12.33-0.01,18.49,0.01c16.36,0.04,27.31,8.73,28.98,24.88c1.2,11.68,1.53,23.63-0.44,35.36
			c-2.15,12.77-11.31,20.82-24.29,21.75c-5.31,0.38-10.65,0.51-15.97,0.4c-3.12-0.06-3.96,1.04-3.91,4.04
			c0.17,8.82,0,17.65,0.06,26.48c0.02,3.45,0.48,6.78-4.69,6.85c-5.42,0.08-5.16-3.46-5.16-7.08
			C819.15,824.19,819.15,806.53,819.14,788.87z M828.98,770.08c0.01,0,0.02,0,0.03,0c0,9.48,0.09,18.96-0.06,28.43
			c-0.04,2.79,0.76,3.84,3.63,3.71c4.48-0.2,8.98-0.02,13.47-0.05c10.24-0.07,17.42-6.6,17.79-16.88c0.35-9.8,0.38-19.63,0-29.42
			c-0.4-10.51-8.03-17.49-18.5-17.62c-4.16-0.05-8.32,0.14-12.47-0.05c-3-0.14-4.03,0.84-3.96,3.95
			C829.11,751.45,828.98,760.77,828.98,770.08z"/>
		<path class="st5" d="M758.26,780.35c0,14.32,0.03,28.65-0.01,42.97c-0.04,15.61-11.46,26.87-27.26,26.93
			c-15.46,0.06-27.08-11.51-27.09-27.08c-0.02-29.31,0-58.62,0.01-87.94c0-2.44-0.55-5.15,2.95-5.96c4.26-0.99,6.41,0.72,6.41,5.44
			c0.02,27.81,0.01,55.63,0.02,83.44c0,4,0.08,8.05,1.56,11.81c3.31,8.45,11.15,12.65,20.08,10.99c7.59-1.4,13.68-9.15,13.76-17.99
			c0.13-14.16,0.04-28.31,0.04-42.47c0-15.16,0.07-30.31-0.04-45.47c-0.03-3.85,1.1-5.99,5.35-5.92c4.19,0.07,4.24,2.72,4.23,5.78
			c-0.04,15.16-0.02,30.31-0.02,45.47C758.25,780.35,758.26,780.35,758.26,780.35z"/>
		<path class="st0" d="M565,536.69c0,19.99,0.04,39.99-0.02,59.98c-0.02,7.66-4.23,14.21-10.48,16.66
			c-7.26,2.86-15.34,1.22-20.16-4.18c-3.89-4.34-5.1-9.71-5.11-15.28c-0.07-38.49-0.09-76.98,0-115.46
			c0.02-10.21,4.88-17.91,12.29-20.39c11.96-4,23.36,4.72,23.45,18.19C565.1,496.37,565,516.53,565,536.69z"/>
		<path class="st0" d="M681,507.34c0-14.17,0.08-28.33-0.07-42.5c-0.03-2.95,0.52-4.16,3.77-3.92c4.31,0.32,8.66-0.01,12.99,0.1
			c10.95,0.26,18.8,7.48,18.98,18.4c0.32,18.66,0.3,37.33,0.03,56c-0.16,10.73-8.01,17.99-19.04,18.38
			c-4.33,0.15-8.68-0.21-12.99,0.09c-3.34,0.24-3.76-1.2-3.73-4.04C681.07,535.68,681,521.51,681,507.34z"/>
		<path class="st0" d="M490.25,763c0-6.98,0.01-13.96-0.01-20.94c-0.01-1.94,0.02-3.81,2.7-3.76c6.13,0.11,12.3-0.62,18.4,0.52
			c7.92,1.48,13.3,7.48,13.67,15.52c0.26,5.64,0.3,11.3,0.05,16.94c-0.47,10.57-7.14,16.74-17.66,16.72
			c-4.49-0.01-8.98-0.16-13.46,0.05c-2.81,0.13-4.07-0.77-3.69-3.63c0.02-0.16,0-0.33,0-0.5C490.25,776.96,490.25,769.98,490.25,763
			z"/>
		<path class="st0" d="M636.15,788.98c0,11.48,0.03,22.97-0.01,34.45c-0.03,10.26-6.98,17.55-16.88,17.8
			c-9.8,0.25-17.9-6.74-18.04-16.75c-0.33-23.46-0.33-46.94-0.01-70.4c0.14-10.41,8.22-17.7,17.99-17.43
			c10.03,0.28,16.87,7.63,16.94,18.36C636.21,766.35,636.15,777.66,636.15,788.98z"/>
		<path class="st0" d="M828.98,770.08c0-9.31,0.12-18.63-0.07-27.93c-0.06-3.11,0.97-4.09,3.96-3.95c4.15,0.19,8.31,0,12.47,0.05
			c10.47,0.13,18.09,7.11,18.5,17.62c0.38,9.79,0.35,19.63,0,29.42c-0.37,10.28-7.55,16.81-17.79,16.88
			c-4.49,0.03-8.99-0.15-13.47,0.05c-2.87,0.13-3.68-0.92-3.63-3.71c0.15-9.48,0.06-18.95,0.06-28.43
			C829,770.08,828.99,770.08,828.98,770.08z"/>
	</g>
</g>
</svg>
